<svg width="45" height="41" viewBox="0 0 45 41" fill="none" xmlns="http://www.w3.org/2000/svg">
<g filter="url(#filter0_d_210_145)">
<path d="M32.7385 6H12.2615C11.0125 6 10 7.0125 10 8.26145V28.7385C10 29.9875 11.0125 31 12.2615 31H32.7385C33.9875 31 35 29.9875 35 28.7385V8.26145C35 7.0125 33.9875 6 32.7385 6ZM17.7361 27.5866C17.7361 27.9501 17.4414 28.2448 17.0779 28.2448H14.2765C13.913 28.2448 13.6184 27.9501 13.6184 27.5866V15.8431C13.6184 15.4796 13.913 15.185 14.2765 15.185H17.0779C17.4414 15.185 17.7361 15.4796 17.7361 15.8431V27.5866ZM15.6772 14.078C14.2074 14.078 13.0158 12.8865 13.0158 11.4166C13.0158 9.94679 14.2074 8.75524 15.6772 8.75524C17.1471 8.75524 18.3386 9.94679 18.3386 11.4166C18.3386 12.8865 17.1471 14.078 15.6772 14.078ZM32.3763 27.6397C32.3763 27.9738 32.1054 28.2448 31.7712 28.2448H28.7651C28.4309 28.2448 28.1599 27.9738 28.1599 27.6397V22.1313C28.1599 21.3096 28.401 18.5304 26.0125 18.5304C24.1598 18.5304 23.784 20.4327 23.7086 21.2863V27.6397C23.7086 27.9738 23.4377 28.2448 23.1035 28.2448H20.196C19.8618 28.2448 19.5909 27.9738 19.5909 27.6397V15.7901C19.5909 15.456 19.8618 15.185 20.196 15.185H23.1035C23.4376 15.185 23.7086 15.456 23.7086 15.7901V16.8147C24.3955 15.7837 25.4165 14.988 27.5902 14.988C32.4039 14.988 32.3763 19.4851 32.3763 21.956V27.6397Z" fill="url(#paint0_linear_210_145)"/>
</g>
<defs>
<filter id="filter0_d_210_145" x="0" y="0" width="45" height="45" filterUnits="userSpaceOnUse" color-interpolation-filters="sRGB">
<feFlood flood-opacity="0" result="BackgroundImageFix"/>
<feColorMatrix in="SourceAlpha" type="matrix" values="0 0 0 0 0 0 0 0 0 0 0 0 0 0 0 0 0 0 127 0" result="hardAlpha"/>
<feOffset dy="4"/>
<feGaussianBlur stdDeviation="5"/>
<feComposite in2="hardAlpha" operator="out"/>
<feColorMatrix type="matrix" values="0 0 0 0 0.545098 0 0 0 0 0.360784 0 0 0 0 0.964706 0 0 0 0.25 0"/>
<feBlend mode="normal" in2="BackgroundImageFix" result="effect1_dropShadow_210_145"/>
<feBlend mode="normal" in="SourceGraphic" in2="effect1_dropShadow_210_145" result="shape"/>
</filter>
<linearGradient id="paint0_linear_210_145" x1="22.5" y1="6" x2="22.5" y2="31" gradientUnits="userSpaceOnUse">
<stop stop-color="#F4F2FF" stop-opacity="0.6"/>
<stop offset="0.5" stop-color="#8B5CF6" stop-opacity="0.6"/>
</linearGradient>
</defs>
</svg>
