<svg width="33" height="33" viewBox="0 0 33 33" fill="none" xmlns="http://www.w3.org/2000/svg">
<g filter="url(#filter0_d_213_34)">
<path d="M16.295 0.001H16.388C18.63 0.001 20.728 0.614 22.525 1.681L22.47 1.65C24.341 2.744 25.856 4.259 26.919 6.072L26.95 6.13C27.99 7.899 28.604 10.026 28.604 12.296C28.604 17.702 25.121 22.296 20.277 23.954L20.19 23.98C20.127 24 20.055 24.011 19.981 24.011C19.819 24.011 19.669 23.957 19.548 23.867L19.55 23.868C19.422 23.753 19.342 23.587 19.342 23.402C19.342 23.397 19.342 23.392 19.342 23.388V23.389C19.342 23.357 19.3447 22.9483 19.35 22.163C19.3553 21.3777 19.358 20.6597 19.358 20.009C19.365 19.934 19.369 19.848 19.369 19.76C19.369 18.968 19.046 18.252 18.525 17.735C19.143 17.674 19.701 17.572 20.243 17.43L20.167 17.447C20.74 17.287 21.24 17.074 21.704 16.805L21.673 16.822C22.181 16.542 22.611 16.186 22.965 15.764L22.971 15.757C23.343 15.281 23.634 14.721 23.811 14.112L23.82 14.077C24.029 13.394 24.149 12.609 24.149 11.796C24.149 11.751 24.149 11.705 24.148 11.66V11.667C24.148 11.645 24.149 11.62 24.149 11.595C24.149 10.347 23.667 9.212 22.88 8.365L22.883 8.368C23.051 7.928 23.148 7.42 23.148 6.889C23.148 6.24 23.003 5.626 22.744 5.075L22.755 5.101C22.64 5.079 22.509 5.066 22.374 5.066C22.04 5.066 21.725 5.144 21.445 5.282L21.457 5.277C20.889 5.487 20.403 5.725 19.945 6.003L19.983 5.981L19.374 6.365C18.452 6.101 17.393 5.949 16.299 5.949C15.205 5.949 14.146 6.101 13.142 6.385L13.223 6.365C13.0523 6.24767 12.8253 6.10333 12.542 5.932C12.169 5.718 11.728 5.511 11.27 5.337L11.204 5.315C10.911 5.161 10.564 5.071 10.195 5.071C10.071 5.071 9.949 5.081 9.831 5.101L9.844 5.099C9.596 5.623 9.451 6.238 9.451 6.887C9.451 7.418 9.548 7.927 9.726 8.396L9.716 8.367C8.931 9.211 8.45 10.346 8.45 11.594C8.45 11.619 8.45 11.645 8.451 11.67V11.666C8.45 11.705 8.45 11.75 8.45 11.796C8.45 12.605 8.57 13.387 8.794 14.123L8.779 14.066C8.968 14.709 9.255 15.268 9.629 15.759L9.62 15.746C9.974 16.181 10.402 16.539 10.887 16.808L10.909 16.819C11.341 17.071 11.842 17.284 12.369 17.433L12.415 17.444C12.881 17.569 13.439 17.671 14.01 17.728L14.056 17.732C13.625 18.16 13.338 18.732 13.272 19.37L13.271 19.382C13.064 19.483 12.823 19.565 12.572 19.618L12.551 19.622C12.295 19.673 12.002 19.702 11.701 19.702C11.679 19.702 11.657 19.702 11.635 19.702H11.638C11.244 19.694 10.882 19.566 10.583 19.354L10.589 19.358C10.218 19.099 9.918 18.763 9.708 18.372L9.701 18.357C9.503 18.021 9.242 17.743 8.933 17.53L8.924 17.524C8.699 17.355 8.434 17.223 8.148 17.144L8.132 17.14L7.812 17.092C7.789 17.09 7.762 17.089 7.735 17.089C7.595 17.089 7.462 17.117 7.341 17.166L7.348 17.163C7.26267 17.211 7.236 17.2723 7.268 17.347C7.307 17.433 7.355 17.507 7.413 17.572L7.412 17.571C7.473 17.643 7.542 17.706 7.617 17.761L7.62 17.763L7.732 17.843C8.015 17.991 8.248 18.197 8.425 18.446L8.429 18.452C8.62 18.689 8.788 18.957 8.923 19.244L8.933 19.268L9.093 19.636C9.228 20.038 9.473 20.374 9.793 20.617L9.798 20.621C10.098 20.855 10.46 21.023 10.855 21.099L10.871 21.101C11.201 21.165 11.585 21.205 11.977 21.213H11.984C12.029 21.215 12.081 21.215 12.134 21.215C12.395 21.215 12.651 21.194 12.901 21.153L12.874 21.157L13.242 21.093C13.242 21.499 13.2447 21.9717 13.25 22.511C13.2553 23.0503 13.258 23.3413 13.258 23.384V23.398C13.258 23.583 13.178 23.749 13.05 23.864C12.931 23.953 12.781 24.007 12.618 24.007C12.543 24.007 12.471 23.996 12.404 23.975L12.409 23.976C7.48 22.287 4 17.693 4 12.286C4 10.018 4.612 7.893 5.681 6.067L5.649 6.125C6.743 4.254 8.258 2.739 10.071 1.676L10.129 1.645C11.868 0.611 13.964 0 16.202 0H16.3H16.295V0.001ZM8.655 17.667C8.687 17.5923 8.64967 17.5283 8.543 17.475C8.43633 17.443 8.367 17.4537 8.335 17.507C8.303 17.5817 8.34033 17.6457 8.447 17.699C8.543 17.763 8.61233 17.7523 8.655 17.667ZM9.152 18.212C9.22667 18.1587 9.216 18.0733 9.12 17.956C9.01333 17.86 8.928 17.844 8.864 17.908C8.78933 17.9613 8.8 18.0467 8.896 18.164C9.002 18.2687 9.08733 18.2843 9.152 18.211V18.212ZM9.632 18.932C9.728 18.8573 9.728 18.756 9.632 18.628C9.54667 18.4893 9.456 18.4573 9.36 18.532C9.264 18.5853 9.264 18.6813 9.36 18.82C9.456 18.9587 9.54667 18.996 9.632 18.932ZM10.304 19.605C10.3893 19.5197 10.368 19.4183 10.24 19.301C10.112 19.173 10.0053 19.157 9.92 19.253C9.824 19.3383 9.84533 19.4397 9.984 19.557C10.112 19.685 10.2187 19.6997 10.304 19.601V19.605ZM11.217 20.005C11.249 19.8877 11.1797 19.8023 11.009 19.749C10.849 19.7063 10.7477 19.7437 10.705 19.861C10.6623 19.9783 10.7317 20.0583 10.913 20.101C11.073 20.1657 11.1743 20.1337 11.217 20.005ZM12.226 20.085C12.226 19.9463 12.1353 19.8877 11.954 19.909C11.7833 19.909 11.698 19.9677 11.698 20.085C11.698 20.2237 11.7887 20.2823 11.97 20.261C12.1407 20.2617 12.226 20.2023 12.226 20.085ZM13.155 19.925C13.1337 19.8077 13.0377 19.7597 12.867 19.781C12.6963 19.813 12.6217 19.893 12.643 20.021C12.6643 20.149 12.7603 20.1917 12.931 20.149C13.1017 20.1063 13.1757 20.0317 13.155 19.925Z" fill="url(#paint0_linear_213_34)"/>
</g>
<defs>
<filter id="filter0_d_213_34" x="0" y="0" width="32.604" height="32.011" filterUnits="userSpaceOnUse" color-interpolation-filters="sRGB">
<feFlood flood-opacity="0" result="BackgroundImageFix"/>
<feColorMatrix in="SourceAlpha" type="matrix" values="0 0 0 0 0 0 0 0 0 0 0 0 0 0 0 0 0 0 127 0" result="hardAlpha"/>
<feOffset dy="4"/>
<feGaussianBlur stdDeviation="2"/>
<feComposite in2="hardAlpha" operator="out"/>
<feColorMatrix type="matrix" values="0 0 0 0 0.545098 0 0 0 0 0.360784 0 0 0 0 0.964706 0 0 0 0.2 0"/>
<feBlend mode="normal" in2="BackgroundImageFix" result="effect1_dropShadow_213_34"/>
<feBlend mode="normal" in="SourceGraphic" in2="effect1_dropShadow_213_34" result="shape"/>
</filter>
<linearGradient id="paint0_linear_213_34" x1="16.302" y1="0" x2="16.302" y2="24.011" gradientUnits="userSpaceOnUse">
<stop stop-color="#F4F2FF" stop-opacity="0.7"/>
<stop offset="1" stop-color="#8B5CF6" stop-opacity="0.7"/>
</linearGradient>
</defs>
</svg>
