<svg width="88" height="88" viewBox="0 0 88 88" fill="none" xmlns="http://www.w3.org/2000/svg">
<g filter="url(#filter0_d_215_53)">
<path d="M14.6668 6.66678C14.6668 5.86678 14.1335 5.3335 13.3335 5.3335C11.0668 5.3335 9.3335 7.06678 9.3335 9.3335C9.3335 10.1335 9.86678 10.6668 10.6668 10.6668C11.4668 10.6668 12.0001 10.1335 12.0001 9.3335C12.0001 8.5335 12.5333 8.00022 13.3333 8.00022C14.1333 8.00022 14.6668 7.46678 14.6668 6.66678Z" fill="url(#paint0_linear_215_53)"/>
<path d="M51.9999 10.6667C52.7999 10.6667 53.3332 10.1335 53.3332 9.33346C53.3332 8.53346 53.8665 8.00018 54.6665 8.00018C55.4665 8.00018 55.9998 7.4669 55.9998 6.6669C55.9998 5.8669 55.4665 5.33362 54.6665 5.33362C52.3998 5.33362 50.6665 7.0669 50.6665 9.33362C50.6667 10.1333 51.1999 10.6667 51.9999 10.6667Z" fill="url(#paint1_linear_215_53)"/>
<path d="M13.3335 46.6667C11.0668 46.6667 9.3335 48.4 9.3335 50.6667C9.3335 51.4667 9.86678 52 10.6668 52C11.4668 52 12.0001 51.4667 12.0001 50.6667C12.0001 49.8667 12.5333 49.3335 13.3333 49.3335C14.1333 49.3335 14.6666 48.8002 14.6666 48.0002C14.6666 47.2002 14.1335 46.6667 13.3335 46.6667Z" fill="url(#paint2_linear_215_53)"/>
<path d="M54.6665 46.6667C52.3998 46.6667 50.6665 48.4 50.6665 50.6667C50.6665 51.4667 51.1998 52 51.9998 52C52.7998 52 53.3331 51.4667 53.3331 50.6667C53.3331 49.8667 53.8663 49.3335 54.6663 49.3335C55.4663 49.3335 55.9996 48.8002 55.9996 48.0002C55.9996 47.2002 55.4665 46.6667 54.6665 46.6667Z" fill="url(#paint3_linear_215_53)"/>
<path d="M30.6669 30.6667C31.4669 30.6667 32.0002 30.1335 32.0002 29.3335C32.0002 28.5335 32.5335 28.0002 33.3335 28.0002C34.1335 28.0002 34.6668 27.4669 34.6668 26.6669C34.6668 25.8669 34.1335 25.3336 33.3335 25.3336C31.0668 25.3336 29.3335 27.0669 29.3335 29.3336C29.3335 30.1333 29.8669 30.6667 30.6669 30.6667Z" fill="url(#paint4_linear_215_53)"/>
<path d="M70.6665 29.3333C70.6665 30.1333 71.1998 30.6666 71.9998 30.6666C72.7998 30.6666 73.3331 30.1333 73.3331 29.3333C73.3331 28.5333 73.8663 28.0001 74.6663 28.0001C75.4663 28.0001 75.9996 27.4668 75.9996 26.6668C75.9996 25.8668 75.4663 25.3335 74.6663 25.3335C72.3998 25.3333 70.6665 27.0668 70.6665 29.3333Z" fill="url(#paint5_linear_215_53)"/>
<path d="M33.3335 66.6667C31.0668 66.6667 29.3335 68.4 29.3335 70.6667C29.3335 71.4667 29.8668 72 30.6668 72C31.4668 72 32.0001 71.4667 32.0001 70.6667C32.0001 69.8667 32.5333 69.3335 33.3333 69.3335C34.1333 69.3335 34.6666 68.8002 34.6666 68.0002C34.6666 67.2002 34.1335 66.6667 33.3335 66.6667Z" fill="url(#paint6_linear_215_53)"/>
<path d="M74.6665 66.6667C72.3998 66.6667 70.6665 68.4 70.6665 70.6667C70.6665 71.4667 71.1998 72 71.9998 72C72.7998 72 73.3331 71.4667 73.3331 70.6667C73.3331 69.8667 73.8663 69.3335 74.6663 69.3335C75.4663 69.3335 75.9996 68.8002 75.9996 68.0002C75.9996 67.2002 75.4665 66.6667 74.6665 66.6667Z" fill="url(#paint7_linear_215_53)"/>
<path d="M76 61.4275V38.5725C80.5555 37.9358 84 34.0798 84 29.3333C84 24.1333 79.8667 20 74.6667 20C72.897 20 71.2514 20.4797 69.8497 21.3162L62.6839 14.1505C63.5203 12.7486 64 11.1031 64 9.33328C64 4.13328 59.8667 0 54.6667 0C49.9202 0 46.0642 3.44453 45.4275 8H22.5725C21.9358 3.44453 18.0798 0 13.3333 0C8.13328 0 4 4.13328 4 9.33328C4 14.0798 7.44453 17.9358 12 18.5725V41.4275C7.44453 42.0642 4 45.9202 4 50.6667C4 55.8667 8.13328 60 13.3333 60C15.103 60 16.7486 59.5203 18.1503 58.6837L25.3161 65.8495C24.4797 67.2514 24 68.8969 24 70.6667C24 75.8667 28.1333 80 33.3333 80C38.0798 80 41.9358 76.5555 42.5725 72H65.4275C66.0642 76.5555 69.9202 80 74.6667 80C79.8667 80 84 75.8667 84 70.6667C84 65.9202 80.5555 62.0642 76 61.4275ZM72.1414 61.6742C71.0095 61.9666 69.952 62.4747 69.0211 63.1545L62.1494 56.2828C63.3138 54.7259 64 52.7848 64 50.6667C64 45.9202 60.5555 42.0642 56 41.4275V30.6667H65.3333C65.8248 34.3531 68.582 37.4714 72.2467 38.3555C72.5583 38.4372 72.8759 38.5042 73.1998 38.5542V61.4461C72.8394 61.5016 72.4866 61.5792 72.1414 61.6742ZM41.0153 65.3306C39.5898 63.2361 37.3216 61.7616 34.6666 61.3334V52H45.4273C46.0641 56.5555 49.92 60 54.6666 60C56.7848 60 58.7258 59.3139 60.2827 58.1494L67.1317 64.9984C66.1866 66.2294 65.5428 67.7087 65.3333 69.3333H42.5725C42.3659 67.8553 41.8205 66.495 41.0153 65.3306ZM26.9898 63.7898L20.2103 57.0103C21.4572 55.6572 22.3031 53.9284 22.5727 52.0002H32V61.4277C30.0717 61.697 28.3428 62.5428 26.9898 63.7898ZM14.6667 41.3333V18.5725C16.2644 18.3492 17.7258 17.7313 18.9495 16.8161L25.8506 23.7172C24.6861 25.2742 24 27.2152 24 29.3333C24 34.0798 27.4445 37.9358 32 38.5725V49.3333H22.5725C22.3659 47.8555 21.8206 46.4952 21.0156 45.3309C19.5902 43.2363 17.3217 41.7616 14.6667 41.3333ZM52.2469 18.3555C52.5583 18.4372 52.8761 18.5042 53.2 18.5541V28H42.5725C41.9358 23.4445 38.0798 20 33.3333 20C31.215 20 29.2741 20.6861 27.7172 21.8506L20.8161 14.9495C21.7313 13.7259 22.3492 12.2645 22.5725 10.6667H45.3333C45.8248 14.3531 48.5822 17.4714 52.2469 18.3555ZM61.0102 16.2102L67.7897 22.9897C66.5428 24.3428 65.6969 26.0716 65.4273 27.9998H56V18.5723C57.9283 18.303 59.6572 17.4572 61.0102 16.2102ZM54.6667 57.3333C50.9334 57.3333 48 54.4 48 50.6666C48 46.9333 50.9333 43.9998 54.6667 43.9998C58.4 43.9998 61.3334 46.9331 61.3334 50.6666C61.3333 54.4 58.4 57.3333 54.6667 57.3333ZM53.2 41.4459C52.8394 41.5016 52.4866 41.5792 52.1416 41.6742C48.6248 42.5825 45.8189 45.5708 45.3334 49.3334H34.6667V38.5727C38.787 37.9967 41.9967 34.787 42.5725 30.6669H53.2V41.4459ZM28.303 24.9202C28.4341 24.8564 28.5608 24.7725 28.6666 24.6667C28.7814 24.5519 28.8702 24.4241 28.9355 24.2897C30.102 23.2756 31.6342 22.6667 33.3333 22.6667C37.0666 22.6667 40 25.6 40 29.3334C40 33.0669 37.0667 36 33.3333 36C29.5998 36 26.6666 33.0667 26.6666 29.3333C26.6667 27.6267 27.2809 26.0886 28.303 24.9202ZM81.3333 29.3333C81.3333 33.0666 78.4 36 74.6666 36C70.9333 36 67.9998 33.0667 67.9998 29.3333C67.9998 27.2745 68.893 25.4605 70.3192 24.2459C70.4444 24.1831 70.5652 24.1012 70.6664 23.9998C70.6952 23.9711 70.7216 23.9412 70.7473 23.9109C71.8413 23.1261 73.1908 22.6664 74.6664 22.6664C78.4 22.6667 81.3333 25.6 81.3333 29.3333ZM54.6667 2.66672C58.4 2.66672 61.3334 5.6 61.3334 9.33344C61.3334 10.8091 60.8737 12.1586 60.0889 13.2527C60.0588 13.2783 60.0288 13.3047 60.0002 13.3334C59.8873 13.4462 59.7998 13.5714 59.7348 13.7031C58.5205 15.1162 56.7148 16.0002 54.6669 16.0002C50.9336 16.0002 48.0002 13.0669 48.0002 9.33344C48.0002 5.6 50.9333 2.66672 54.6667 2.66672ZM6.66672 9.33328C6.66672 5.6 9.6 2.66656 13.3334 2.66656C17.0669 2.66656 20 5.6 20 9.33328C20 13.0666 17.0667 16 13.3333 16C9.59984 16 6.66672 13.0667 6.66672 9.33328ZM6.66672 50.6667C6.66672 46.9334 9.6 44 13.3334 44C17.0669 44 20.0002 46.9333 20.0002 50.6667C20.0002 52.7145 19.1162 54.5203 17.7031 55.7347C17.5716 55.7998 17.4462 55.8872 17.3334 56C17.3047 56.0287 17.2783 56.0586 17.2527 56.0887C16.1588 56.8736 14.8092 57.3333 13.3334 57.3333C9.6 57.3333 6.66672 54.4 6.66672 50.6667ZM33.3333 77.3333C29.6 77.3333 26.6666 74.4 26.6666 70.6666C26.6666 69.1884 27.1278 67.8367 27.915 66.7419C27.9442 66.7178 27.9731 66.6934 27.9998 66.6666C28.1127 66.5537 28.2002 66.4286 28.2652 66.2969C29.4795 64.8838 31.2852 63.9998 33.3331 63.9998C37.0664 63.9998 39.9998 66.9331 39.9998 70.6666C40 74.4 37.0667 77.3333 33.3333 77.3333ZM74.6667 77.3333C70.9334 77.3333 68 74.4 68 70.6666C68 68.96 68.6142 67.4219 69.6364 66.2533C69.7675 66.1895 69.8942 66.1056 70 65.9998C70.1148 65.885 70.2036 65.7572 70.2689 65.6228C71.4355 64.6087 72.9675 63.9998 74.6667 63.9998C78.4 63.9998 81.3334 66.9331 81.3334 70.6666C81.3333 74.4 78.4 77.3333 74.6667 77.3333Z" fill="url(#paint8_linear_215_53)"/>
</g>
<defs>
<filter id="filter0_d_215_53" x="0" y="0" width="88" height="88" filterUnits="userSpaceOnUse" color-interpolation-filters="sRGB">
<feFlood flood-opacity="0" result="BackgroundImageFix"/>
<feColorMatrix in="SourceAlpha" type="matrix" values="0 0 0 0 0 0 0 0 0 0 0 0 0 0 0 0 0 0 127 0" result="hardAlpha"/>
<feOffset dy="4"/>
<feGaussianBlur stdDeviation="2"/>
<feComposite in2="hardAlpha" operator="out"/>
<feColorMatrix type="matrix" values="0 0 0 0 0.545098 0 0 0 0 0.360784 0 0 0 0 0.964706 0 0 0 0.2 0"/>
<feBlend mode="normal" in2="BackgroundImageFix" result="effect1_dropShadow_215_53"/>
<feBlend mode="normal" in="SourceGraphic" in2="effect1_dropShadow_215_53" result="shape"/>
</filter>
<linearGradient id="paint0_linear_215_53" x1="12.0001" y1="5.3335" x2="12.0001" y2="10.6668" gradientUnits="userSpaceOnUse">
<stop stop-color="#F4F2FF"/>
<stop offset="1" stop-color="#8B5CF6"/>
</linearGradient>
<linearGradient id="paint1_linear_215_53" x1="53.3331" y1="5.33362" x2="53.3331" y2="10.6667" gradientUnits="userSpaceOnUse">
<stop stop-color="#F4F2FF"/>
<stop offset="1" stop-color="#8B5CF6"/>
</linearGradient>
<linearGradient id="paint2_linear_215_53" x1="12.0001" y1="46.6667" x2="12.0001" y2="52" gradientUnits="userSpaceOnUse">
<stop stop-color="#F4F2FF"/>
<stop offset="1" stop-color="#8B5CF6"/>
</linearGradient>
<linearGradient id="paint3_linear_215_53" x1="53.3331" y1="46.6667" x2="53.3331" y2="52" gradientUnits="userSpaceOnUse">
<stop stop-color="#F4F2FF"/>
<stop offset="1" stop-color="#8B5CF6"/>
</linearGradient>
<linearGradient id="paint4_linear_215_53" x1="32.0001" y1="25.3336" x2="32.0001" y2="30.6667" gradientUnits="userSpaceOnUse">
<stop stop-color="#F4F2FF"/>
<stop offset="1" stop-color="#8B5CF6"/>
</linearGradient>
<linearGradient id="paint5_linear_215_53" x1="73.3331" y1="25.3335" x2="73.3331" y2="30.6666" gradientUnits="userSpaceOnUse">
<stop stop-color="#F4F2FF"/>
<stop offset="1" stop-color="#8B5CF6"/>
</linearGradient>
<linearGradient id="paint6_linear_215_53" x1="32.0001" y1="66.6667" x2="32.0001" y2="72" gradientUnits="userSpaceOnUse">
<stop stop-color="#F4F2FF"/>
<stop offset="1" stop-color="#8B5CF6"/>
</linearGradient>
<linearGradient id="paint7_linear_215_53" x1="73.3331" y1="66.6667" x2="73.3331" y2="72" gradientUnits="userSpaceOnUse">
<stop stop-color="#F4F2FF"/>
<stop offset="1" stop-color="#8B5CF6"/>
</linearGradient>
<linearGradient id="paint8_linear_215_53" x1="44" y1="0" x2="44" y2="80" gradientUnits="userSpaceOnUse">
<stop stop-color="#F4F2FF"/>
<stop offset="1" stop-color="#8B5CF6"/>
</linearGradient>
</defs>
</svg>
