<svg width="88" height="88" viewBox="0 0 88 88" fill="none" xmlns="http://www.w3.org/2000/svg">
<g clip-path="url(#clip0_174_97)">
<path d="M44 55C50.0751 55 55 50.0751 55 44C55 37.9249 50.0751 33 44 33C37.9249 33 33 37.9249 33 44C33 50.0751 37.9249 55 44 55Z" stroke="url(#paint0_linear_174_97)" stroke-width="1.8"/>
<g filter="url(#filter0_d_174_97)">
<path d="M60.5 44H83.875M27.5 44H4.125M44 60.5V83.875M44 27.5V4.125M55.6671 55.6671L72.1958 72.1958M32.3328 55.6671L15.8043 72.1958M32.3328 32.3328L15.8043 15.8043M55.6671 32.3328L72.1958 15.8043" stroke="url(#paint1_linear_174_97)" stroke-width="1.8" shape-rendering="crispEdges"/>
</g>
</g>
<defs>
<filter id="filter0_d_174_97" x="0.125" y="4.125" width="87.75" height="87.75" filterUnits="userSpaceOnUse" color-interpolation-filters="sRGB">
<feFlood flood-opacity="0" result="BackgroundImageFix"/>
<feColorMatrix in="SourceAlpha" type="matrix" values="0 0 0 0 0 0 0 0 0 0 0 0 0 0 0 0 0 0 127 0" result="hardAlpha"/>
<feOffset dy="4"/>
<feGaussianBlur stdDeviation="2"/>
<feComposite in2="hardAlpha" operator="out"/>
<feColorMatrix type="matrix" values="0 0 0 0 0.545098 0 0 0 0 0.360784 0 0 0 0 0.964706 0 0 0 0.2 0"/>
<feBlend mode="normal" in2="BackgroundImageFix" result="effect1_dropShadow_174_97"/>
<feBlend mode="normal" in="SourceGraphic" in2="effect1_dropShadow_174_97" result="shape"/>
</filter>
<linearGradient id="paint0_linear_174_97" x1="44" y1="33" x2="44" y2="55" gradientUnits="userSpaceOnUse">
<stop stop-color="#F4F2FF"/>
<stop offset="1" stop-color="#8B5CF6"/>
</linearGradient>
<linearGradient id="paint1_linear_174_97" x1="44" y1="4.125" x2="44" y2="83.875" gradientUnits="userSpaceOnUse">
<stop stop-color="#F4F2FF"/>
<stop offset="1" stop-color="#8B5CF6"/>
</linearGradient>
<clipPath id="clip0_174_97">
<rect width="88" height="88" fill="white"/>
</clipPath>
</defs>
</svg>
